<?xml version="1.0" encoding="utf-8"?>
<!-- Generator: Adobe Illustrator 22.1.0, SVG Export Plug-In . SVG Version: 6.00 Build 0)  -->
<svg xmlns="http://www.w3.org/2000/svg" xmlns:xlink="http://www.w3.org/1999/xlink" version="1.1" id="Layer_1" x="0px" y="0px" viewBox="0 0 256 256" style="enable-background:new 0 0 256 256;" xml:space="preserve" width="512" height="512">
<style type="text/css">
	.st0{fill:#FF4397;}
	.st1{fill:#E12579;}
	.st2{fill:#FF61B5;}
	.st3{fill:#690589;}
	.st4{fill:#FCC24C;}
	.st5{fill:#7BAC51;}
	.st6{fill:#5D8E33;}
	.st7{fill:#99CA6F;}
	.st8{fill:#E18152;}
	.st9{fill:#F4EFED;}
	.st10{fill:#FF9F70;}
	.st11{fill:#FFBD8E;}
	.st12{fill:#D6D1CF;}
	.st13{fill:#FFFFFF;}
	.st14{fill:#FCE06A;}
	.st15{fill:#DEA42E;}
</style>
<g>
	<g>
		<path class="st0" d="M136.777,164.443c0.712,20.984,4.656,50.598,11.727,70.397l0.733,2.054h-42.803l0.733-2.054    c7.071-19.799,11.015-49.413,11.727-70.397H136.777z"/>
	</g>
	<g>
		<path class="st3" d="M149.237,238.893h-42.803c-0.65,0-1.26-0.316-1.635-0.848c-0.375-0.532-0.467-1.212-0.249-1.825l0.733-2.054    c7.056-19.757,10.916-49.289,11.611-69.792c0.037-1.078,0.921-1.932,1.999-1.932h17.882c1.078,0,1.962,0.854,1.999,1.932    c0.695,20.503,4.556,50.035,11.611,69.792l0.733,2.054c0.219,0.613,0.126,1.293-0.249,1.825    C150.498,238.577,149.888,238.893,149.237,238.893z M109.271,234.893h37.131c-6.844-19.533-10.683-47.962-11.55-68.45H120.82    C119.954,186.931,116.114,215.36,109.271,234.893z"/>
	</g>
	<g>
		<path class="st5" d="M190.927,4H65.073c-5.908,0-10.698,4.79-10.698,10.698l0,0c0,5.908,4.79,10.698,10.698,10.698h125.854    c5.908,0,10.698-4.79,10.698-10.698l0,0C201.625,8.79,196.835,4,190.927,4z"/>
	</g>
	<g>
		<path class="st5" d="M128.831,173.947h-1.99c-33.519,0-60.692-27.173-60.692-60.692v-87.86h123.373v87.86    C189.523,146.775,162.35,173.947,128.831,173.947z"/>
	</g>
	<g>
		<path class="st5" d="M168.687,252H87.312v-11.313c0-5.523,4.477-10,10-10h61.375c5.523,0,10,4.477,10,10V252z"/>
	</g>
	<g>
		<path class="st0" d="M184.187,40.887v11.24h25.8v26.201c0,14.619-11.551,26.47-25.8,26.47v11.24    c20.331,0,36.813-16.909,36.813-37.767V40.887H184.187z"/>
	</g>
	<g>
		<path class="st0" d="M71.812,52.127v-11.24H35V78.27c0,20.858,16.481,37.767,36.812,37.767v-11.24    c-14.249,0-25.8-11.851-25.8-26.47V52.127H71.812z"/>
	</g>
	<g>
		<path class="st3" d="M184.188,118.038c-1.104,0-2-0.896-2-2v-11.24c0-1.104,0.896-2,2-2c13.124,0,23.8-10.977,23.8-24.47V54.127    h-23.8c-1.104,0-2-0.896-2-2v-11.24c0-1.104,0.896-2,2-2H221c1.104,0,2,0.896,2,2v37.384    C223,100.198,205.589,118.038,184.188,118.038z M186.188,106.725v7.255C204.456,112.911,219,97.303,219,78.271V42.887h-32.813    v7.24h23.8c1.104,0,2,0.896,2,2v26.201C211.988,93.337,200.586,105.671,186.188,106.725z"/>
	</g>
	<g>
		<path class="st3" d="M71.813,118.038C50.411,118.038,33,100.198,33,78.271V40.887c0-1.104,0.896-2,2-2h36.813c1.104,0,2,0.896,2,2    v11.24c0,1.104-0.896,2-2,2h-23.8v24.201c0,13.493,10.677,24.47,23.8,24.47c1.104,0,2,0.896,2,2v11.24    C73.813,117.142,72.917,118.038,71.813,118.038z M37,42.887v35.384c0,19.032,14.544,34.64,32.813,35.709v-7.255    c-14.399-1.054-25.8-13.388-25.8-28.397V52.127c0-1.104,0.896-2,2-2h23.8v-7.24H37z"/>
	</g>
	<g>
		<path class="st6" d="M179.835,25.396v89.757c0,31.817-25.277,57.714-56.843,58.746c0.65,0.021,1.297,0.049,1.952,0.049h5.783    c32.472,0,58.795-26.323,58.795-58.795V25.396H179.835z"/>
	</g>
	<g>
		<path class="st7" d="M75.837,25.396v89.757c0,31.817,25.277,57.714,56.843,58.746c-0.65,0.021-1.297,0.049-1.952,0.049h-5.783    c-32.472,0-58.795-26.323-58.795-58.795V25.396H75.837z"/>
	</g>
	<g>
		<path class="st6" d="M190.927,4h-19.375c5.908,0,10.698,4.79,10.698,10.698v0c0,5.908-4.79,10.698-10.698,10.698h19.375    c5.908,0,10.698-4.79,10.698-10.698v0C201.625,8.79,196.835,4,190.927,4z"/>
	</g>
	<g>
		<path class="st7" d="M65.073,25.396h19.375c-5.908,0-10.698-4.79-10.698-10.698v0C73.75,8.79,78.54,4,84.448,4H65.073    c-5.908,0-10.698,4.79-10.698,10.698v0C54.375,20.606,59.165,25.396,65.073,25.396z"/>
	</g>
	<g>
		<polygon class="st4" points="128,114.548 107.865,125.134 111.71,102.713 95.42,86.834 117.932,83.563 128,63.163 138.068,83.563     160.58,86.834 144.29,102.713 148.135,125.134   "/>
	</g>
	<g>
		<path class="st3" d="M148.135,127.134c-0.318,0-0.638-0.076-0.931-0.23L128,116.808l-19.205,10.096    c-0.673,0.355-1.49,0.295-2.106-0.152c-0.616-0.448-0.924-1.206-0.795-1.956l3.667-21.385L94.024,88.266    c-0.545-0.531-0.741-1.326-0.506-2.05c0.235-0.724,0.861-1.251,1.615-1.361l21.471-3.12l9.603-19.457    c0.337-0.683,1.032-1.115,1.793-1.115s1.457,0.432,1.793,1.115l9.603,19.457l21.471,3.12c0.753,0.109,1.379,0.637,1.615,1.361    c0.235,0.724,0.039,1.519-0.506,2.05l-15.537,15.145l3.667,21.385c0.129,0.75-0.18,1.508-0.795,1.956    C148.962,127.005,148.55,127.134,148.135,127.134z M128,112.548c0.32,0,0.639,0.077,0.931,0.23l16.548,8.7l-3.16-18.427    c-0.111-0.648,0.104-1.311,0.575-1.77l13.388-13.05l-18.501-2.688c-0.651-0.094-1.214-0.503-1.506-1.094L128,67.683l-8.274,16.766    c-0.292,0.59-0.854,1-1.506,1.094L99.718,88.23l13.388,13.05c0.471,0.459,0.687,1.122,0.575,1.77l-3.16,18.427l16.548-8.7    C127.361,112.625,127.68,112.548,128,112.548z"/>
	</g>
	<g>
		<path class="st3" d="M128.831,175.947h-1.99c-34.568,0-62.691-28.123-62.691-62.691v-87.86c0-1.104,0.896-2,2-2h123.373    c1.104,0,2,0.896,2,2v87.86C191.522,147.824,163.399,175.947,128.831,175.947z M68.149,27.396v85.86    c0,32.362,26.329,58.691,58.691,58.691h1.99c32.363,0,58.691-26.329,58.691-58.691v-85.86H68.149z"/>
	</g>
	<g>
		<path class="st3" d="M73.899,62.188c-1.104,0-2-0.896-2-2V43.719c0-1.104,0.896-2,2-2s2,0.896,2,2v16.469    C75.899,61.292,75.004,62.188,73.899,62.188z"/>
	</g>
	<g>
		<path class="st3" d="M190.927,27.396H65.073c-7.002,0-12.698-5.696-12.698-12.698C52.375,7.696,58.071,2,65.073,2h125.854    c7.002,0,12.698,5.696,12.698,12.698C203.625,21.7,197.929,27.396,190.927,27.396z M65.073,6c-4.796,0-8.698,3.902-8.698,8.698    c0,4.796,3.902,8.698,8.698,8.698h125.854c4.796,0,8.698-3.902,8.698-8.698c0-4.796-3.902-8.698-8.698-8.698H65.073z"/>
	</g>
	<g>
		<path class="st6" d="M159,230.688h-9.688c5.35,0,9.688,4.337,9.688,9.688V252h9.687v-11.625    C168.687,235.025,164.35,230.688,159,230.688z"/>
	</g>
	<g>
		<path class="st7" d="M97,230.688h9.687c-5.35,0-9.687,4.337-9.687,9.688V252h-9.688v-11.625    C87.312,235.025,91.65,230.688,97,230.688z"/>
	</g>
	<g>
		<path class="st3" d="M168.688,254H87.313c-1.104,0-2-0.896-2-2v-11.313c0-6.617,5.383-12,12-12h61.375c6.617,0,12,5.383,12,12V252    C170.688,253.104,169.792,254,168.688,254z M89.313,250h77.375v-9.313c0-4.411-3.589-8-8-8H97.313c-4.411,0-8,3.589-8,8V250z"/>
	</g>
</g>
</svg>
